<?xml version="1.0" encoding="UTF-8"?><svg xmlns="http://www.w3.org/2000/svg" xmlns:xlink="http://www.w3.org/1999/xlink" fill-opacity="1" color-rendering="auto" color-interpolation="auto" text-rendering="auto" stroke="black" stroke-linecap="square" width="937" stroke-miterlimit="10" shape-rendering="auto" stroke-opacity="1" fill="black" stroke-dasharray="none" font-weight="normal" stroke-width="1" height="1137" font-family="'Dialog'" font-style="normal" stroke-linejoin="miter" font-size="12px" stroke-dashoffset="0" image-rendering="auto">
  <!--Generated by ySVG 2.6-->
  <defs id="genericDefs"/>
  <g>
    <defs id="defs1">
      <clipPath clipPathUnits="userSpaceOnUse" id="clipPath1">
        <path d="M0 0 L937 0 L937 1137 L0 1137 L0 0 Z"/>
      </clipPath>
      <clipPath clipPathUnits="userSpaceOnUse" id="clipPath2">
        <path d="M-102 -271 L835 -271 L835 866 L-102 866 L-102 -271 Z"/>
      </clipPath>
    </defs>
    <g fill="white" text-rendering="geometricPrecision" shape-rendering="geometricPrecision" transform="translate(102,271)" stroke="white">
      <rect x="-102" width="937" height="1137" y="-271" clip-path="url(#clipPath2)" stroke="none"/>
    </g>
    <g fill="silver" text-rendering="geometricPrecision" shape-rendering="geometricPrecision" transform="matrix(1,0,0,1,102,271)" stroke="silver">
      <rect x="-44.602" y="689.7546" clip-path="url(#clipPath2)" width="305" rx="4" ry="4" height="57" stroke="none"/>
    </g>
    <g text-rendering="geometricPrecision" stroke-miterlimit="1.45" shape-rendering="geometricPrecision" transform="matrix(1,0,0,1,102,271)" stroke-linecap="butt">
      <rect x="-44.602" y="689.7546" clip-path="url(#clipPath2)" fill="none" width="305" rx="4" ry="4" height="57"/>
      <text x="40.0327" xml:space="preserve" y="708.4401" clip-path="url(#clipPath2)" font-family="sans-serif" stroke="none">Search for OR genes with</text>
      <text x="46.1558" xml:space="preserve" y="722.4089" clip-path="url(#clipPath2)" font-family="sans-serif" stroke="none">less stringeant BLASTs </text>
      <text x="46.0854" xml:space="preserve" y="736.3776" clip-path="url(#clipPath2)" font-family="sans-serif" stroke="none">(similarly to while loop)</text>
    </g>
    <g fill="silver" text-rendering="geometricPrecision" shape-rendering="geometricPrecision" transform="matrix(1,0,0,1,102,271)" stroke="silver">
      <rect x="482.9531" y="-176.6715" clip-path="url(#clipPath2)" width="305" rx="4" ry="4" height="57" stroke="none"/>
    </g>
    <g text-rendering="geometricPrecision" stroke-miterlimit="1.45" shape-rendering="geometricPrecision" transform="matrix(1,0,0,1,102,271)" stroke-linecap="butt">
      <rect x="482.9531" y="-176.6715" clip-path="url(#clipPath2)" fill="none" width="305" rx="4" ry="4" height="57"/>
      <text x="540.8281" xml:space="preserve" y="-151.0016" clip-path="url(#clipPath2)" font-family="sans-serif" stroke="none">Search for more OR pseudogenes </text>
      <text x="573.6406" xml:space="preserve" y="-137.0328" clip-path="url(#clipPath2)" font-family="sans-serif" stroke="none">(similarly to while loop)</text>
    </g>
    <g fill="silver" text-rendering="geometricPrecision" shape-rendering="geometricPrecision" transform="matrix(1,0,0,1,102,271)" stroke="silver">
      <rect x="482.9531" y="-78.984" clip-path="url(#clipPath2)" width="305" rx="4" ry="4" height="57" stroke="none"/>
    </g>
    <g text-rendering="geometricPrecision" stroke-miterlimit="1.45" shape-rendering="geometricPrecision" transform="matrix(1,0,0,1,102,271)" stroke-linecap="butt">
      <rect x="482.9531" y="-78.984" clip-path="url(#clipPath2)" fill="none" width="305" rx="4" ry="4" height="57"/>
      <text x="542.7354" xml:space="preserve" y="-60.2985" clip-path="url(#clipPath2)" font-family="sans-serif" stroke="none">Search for more OR pseudogenes</text>
      <text x="586.1445" xml:space="preserve" y="-46.3297" clip-path="url(#clipPath2)" font-family="sans-serif" stroke="none">with a smaller size </text>
      <text x="573.6406" xml:space="preserve" y="-32.361" clip-path="url(#clipPath2)" font-family="sans-serif" stroke="none">(similarly to while loop)</text>
    </g>
    <g fill="rgb(255,204,153)" text-rendering="geometricPrecision" shape-rendering="geometricPrecision" transform="matrix(1,0,0,1,102,271)" stroke="rgb(255,204,153)">
      <rect x="482.9531" width="305" height="88" y="18.7035" clip-path="url(#clipPath2)" stroke="none"/>
      <rect x="482.9531" y="18.7035" clip-path="url(#clipPath2)" fill="rgb(255,255,218)" width="1" height="88" stroke="none"/>
      <rect x="483.9531" y="18.7035" clip-path="url(#clipPath2)" fill="rgb(255,255,218)" width="303" height="1" stroke="none"/>
      <rect x="483.9531" y="105.7035" clip-path="url(#clipPath2)" fill="rgb(178,142,107)" width="304" height="1" stroke="none"/>
      <rect x="786.9531" y="18.7035" clip-path="url(#clipPath2)" fill="rgb(178,142,107)" width="1" height="87" stroke="none"/>
    </g>
    <g text-rendering="geometricPrecision" stroke-miterlimit="1.45" shape-rendering="geometricPrecision" font-family="sans-serif" transform="matrix(1,0,0,1,102,271)" stroke-linecap="butt">
      <text x="617.2715" xml:space="preserve" y="38.9203" clip-path="url(#clipPath2)" stroke="none">blastx</text>
      <text x="512.7314" xml:space="preserve" y="52.889" clip-path="url(#clipPath2)" stroke="none">query : potential OR genes/pseudogenes</text>
      <text x="534.5078" xml:space="preserve" y="66.8578" clip-path="url(#clipPath2)" stroke="none">against :  extended db (with GRs)</text>
      <text x="633.5459" xml:space="preserve" y="80.8265" clip-path="url(#clipPath2)" stroke="none"> </text>
      <text x="530.8926" xml:space="preserve" y="94.7953" clip-path="url(#clipPath2)" stroke="none">(to filter some bad candidates out)</text>
    </g>
    <g fill="rgb(255,153,204)" text-rendering="geometricPrecision" shape-rendering="geometricPrecision" transform="matrix(1,0,0,1,102,271)" stroke="rgb(255,153,204)">
      <rect x="482.9531" width="305" height="56" y="147.391" clip-path="url(#clipPath2)" stroke="none"/>
      <rect x="482.9531" y="147.391" clip-path="url(#clipPath2)" fill="rgb(255,218,255)" width="1" height="56" stroke="none"/>
      <rect x="483.9531" y="147.391" clip-path="url(#clipPath2)" fill="rgb(255,218,255)" width="303" height="1" stroke="none"/>
      <rect x="483.9531" y="202.391" clip-path="url(#clipPath2)" fill="rgb(178,107,142)" width="304" height="1" stroke="none"/>
      <rect x="786.9531" y="147.391" clip-path="url(#clipPath2)" fill="rgb(178,107,142)" width="1" height="55" stroke="none"/>
    </g>
    <g text-rendering="geometricPrecision" stroke-miterlimit="1.45" shape-rendering="geometricPrecision" font-family="sans-serif" transform="matrix(1,0,0,1,102,271)" stroke-linecap="butt">
      <text x="613.6973" xml:space="preserve" y="172.5609" clip-path="url(#clipPath2)" stroke="none">MAFFT </text>
      <text x="492.5078" xml:space="preserve" y="186.5297" clip-path="url(#clipPath2)" stroke="none">(align OR DB and candidate protein sequences)</text>
    </g>
    <g fill="rgb(153,204,255)" text-rendering="geometricPrecision" shape-rendering="geometricPrecision" transform="matrix(1,0,0,1,102,271)" stroke="rgb(153,204,255)">
      <rect x="482.9531" width="305" height="56" y="244.0785" clip-path="url(#clipPath2)" stroke="none"/>
      <rect x="482.9531" y="244.0785" clip-path="url(#clipPath2)" fill="rgb(218,255,255)" width="1" height="56" stroke="none"/>
      <rect x="483.9531" y="244.0785" clip-path="url(#clipPath2)" fill="rgb(218,255,255)" width="303" height="1" stroke="none"/>
      <rect x="483.9531" y="299.0785" clip-path="url(#clipPath2)" fill="rgb(107,142,178)" width="304" height="1" stroke="none"/>
      <rect x="786.9531" y="244.0785" clip-path="url(#clipPath2)" fill="rgb(107,142,178)" width="1" height="55" stroke="none"/>
    </g>
    <g text-rendering="geometricPrecision" stroke-miterlimit="1.45" shape-rendering="geometricPrecision" font-family="sans-serif" transform="matrix(1,0,0,1,102,271)" stroke-linecap="butt">
      <text x="613.5449" xml:space="preserve" y="262.264" clip-path="url(#clipPath2)" stroke="none">IQTREE</text>
      <text x="534.6279" xml:space="preserve" y="276.2328" clip-path="url(#clipPath2)" stroke="none">(creates phylogenetic tree of the </text>
      <text x="509.7871" xml:space="preserve" y="290.2015" clip-path="url(#clipPath2)" stroke="none">OR DB proteins and putative OR proteins)</text>
    </g>
    <g fill="rgb(204,255,204)" text-rendering="geometricPrecision" shape-rendering="geometricPrecision" transform="matrix(1,0,0,1,102,271)" stroke="rgb(204,255,204)">
      <path d="M500.4531 362.1472 L579.5343 340.766 L691.3719 340.766 L770.4531 362.1472 L770.4531 392.3848 L691.3719 413.766 L579.5343 413.766 L500.4531 392.3848 Z" fill-rule="evenodd" clip-path="url(#clipPath2)" stroke="none"/>
    </g>
    <g text-rendering="geometricPrecision" stroke-miterlimit="1.45" shape-rendering="geometricPrecision" transform="matrix(1,0,0,1,102,271)" stroke-linecap="butt">
      <path fill="none" d="M500.4531 362.1472 L579.5343 340.766 L691.3719 340.766 L770.4531 362.1472 L770.4531 392.3848 L691.3719 413.766 L579.5343 413.766 L500.4531 392.3848 Z" fill-rule="evenodd" clip-path="url(#clipPath2)"/>
      <text x="575.3828" xml:space="preserve" y="367.4515" clip-path="url(#clipPath2)" font-family="sans-serif" stroke="none">Rscript : tree parser</text>
      <text x="549.8945" xml:space="preserve" y="381.4203" clip-path="url(#clipPath2)" font-family="sans-serif" stroke="none">(excludes candidate OR that</text>
      <text x="542.2861" xml:space="preserve" y="395.389" clip-path="url(#clipPath2)" font-family="sans-serif" stroke="none">cluster with outgroup proteins)</text>
    </g>
    <g fill="rgb(255,255,153)" text-rendering="geometricPrecision" shape-rendering="geometricPrecision" transform="matrix(1,0,0,1,102,271)" stroke="rgb(255,255,153)">
      <path d="M513.4531 454.4535 L787.9531 454.4535 L757.4531 537.7035 L482.9531 537.7035 Z" fill-rule="evenodd" clip-path="url(#clipPath2)" stroke="none"/>
    </g>
    <g text-rendering="geometricPrecision" stroke-miterlimit="1.45" shape-rendering="geometricPrecision" font-family="sans-serif" transform="matrix(1,0,0,1,102,271)" stroke-linecap="butt">
      <text x="564.8975" xml:space="preserve" y="479.2797" clip-path="url(#clipPath2)" stroke="none">7tm domain prediction:</text>
      <text x="607.8848" xml:space="preserve" y="493.2484" clip-path="url(#clipPath2)" stroke="none">- Phobius</text>
      <text x="591.8623" xml:space="preserve" y="507.2172" clip-path="url(#clipPath2)" stroke="none">- DeepTMHMM</text>
      <text x="530.6113" xml:space="preserve" y="521.1859" clip-path="url(#clipPath2)" stroke="none">(add info on predicted gene name)</text>
    </g>
    <g fill="rgb(204,255,204)" text-rendering="geometricPrecision" shape-rendering="geometricPrecision" transform="matrix(1,0,0,1,102,271)" stroke="rgb(204,255,204)">
      <path d="M500.4531 599.7722 L579.5343 578.391 L691.3719 578.391 L770.4531 599.7722 L770.4531 630.0098 L691.3719 651.391 L579.5343 651.391 L500.4531 630.0098 Z" fill-rule="evenodd" clip-path="url(#clipPath2)" stroke="none"/>
    </g>
    <g text-rendering="geometricPrecision" stroke-miterlimit="1.45" shape-rendering="geometricPrecision" transform="matrix(1,0,0,1,102,271)" stroke-linecap="butt">
      <path fill="none" d="M500.4531 599.7722 L579.5343 578.391 L691.3719 578.391 L770.4531 599.7722 L770.4531 630.0098 L691.3719 651.391 L579.5343 651.391 L500.4531 630.0098 Z" fill-rule="evenodd" clip-path="url(#clipPath2)"/>
      <text x="552.6924" xml:space="preserve" y="612.0609" clip-path="url(#clipPath2)" font-family="sans-serif" stroke="none">Rscript : remove redundant</text>
      <text x="603.4141" xml:space="preserve" y="626.0297" clip-path="url(#clipPath2)" font-family="sans-serif" stroke="none">sequences</text>
    </g>
    <g fill="maroon" text-rendering="geometricPrecision" shape-rendering="geometricPrecision" transform="matrix(1,0,0,1,102,271)" stroke="maroon">
      <rect x="451.3386" width="368.229" height="168.984" y="681.391" clip-path="url(#clipPath2)" stroke="none"/>
    </g>
    <g text-rendering="geometricPrecision" stroke-miterlimit="1.45" shape-rendering="geometricPrecision" transform="matrix(1,0,0,1,102,271)" stroke-linecap="butt">
      <rect fill="none" x="451.3386" width="368.229" height="168.984" y="681.391" clip-path="url(#clipPath2)"/>
      <text x="514.7588" y="700.1935" clip-path="url(#clipPath2)" fill="white" font-family="sans-serif" stroke="none" xml:space="preserve">RESULTS (in a new folder for each run) :</text>
      <text x="633.5459" y="714.1623" clip-path="url(#clipPath2)" fill="white" font-family="sans-serif" stroke="none" xml:space="preserve"> </text>
      <text x="562.4336" y="728.131" clip-path="url(#clipPath2)" fill="white" font-family="sans-serif" stroke="none" xml:space="preserve">- Functionnal ORs genes</text>
      <text x="580.7441" y="742.0998" clip-path="url(#clipPath2)" fill="white" font-family="sans-serif" stroke="none" xml:space="preserve">- OR Pseudogenes</text>
      <text x="583.8203" y="756.0685" clip-path="url(#clipPath2)" fill="white" font-family="sans-serif" stroke="none" xml:space="preserve">- Ambiguous ORs</text>
      <text x="481.4072" y="770.0373" clip-path="url(#clipPath2)" fill="white" font-family="sans-serif" stroke="none" xml:space="preserve">+ IQ-TREE Files, coordinates files, explored regions</text>
      <text x="511.4219" y="784.006" clip-path="url(#clipPath2)" fill="white" font-family="sans-serif" stroke="none" xml:space="preserve">+ results summary (in working directory)</text>
      <text x="633.5459" y="797.9748" clip-path="url(#clipPath2)" fill="white" font-family="sans-serif" stroke="none" xml:space="preserve"> </text>
      <text x="524.1162" y="811.9435" clip-path="url(#clipPath2)" fill="white" font-family="sans-serif" stroke="none" xml:space="preserve">IF 7TM (or more) PREDICTION IS ON :</text>
      <text x="493.4365" y="825.9123" clip-path="url(#clipPath2)" fill="white" font-family="sans-serif" stroke="none" xml:space="preserve">+ DeepTMHMM and Phobius prediction outputs</text>
      <text x="532.2842" y="839.881" clip-path="url(#clipPath2)" fill="white" font-family="sans-serif" stroke="none" xml:space="preserve">+ list of genes with 7TM predicted</text>
    </g>
    <g fill="rgb(255,204,153)" text-rendering="geometricPrecision" shape-rendering="geometricPrecision" transform="matrix(1,0,0,1,102,271)" stroke="rgb(255,204,153)">
      <rect x="-34.9569" width="209" height="88" y="-255.8945" clip-path="url(#clipPath2)" stroke="none"/>
      <rect x="-34.9569" y="-255.8945" clip-path="url(#clipPath2)" fill="rgb(255,255,218)" width="1" height="88" stroke="none"/>
      <rect x="-33.9569" y="-255.8945" clip-path="url(#clipPath2)" fill="rgb(255,255,218)" width="207" height="1" stroke="none"/>
      <rect x="-33.9569" y="-168.8945" clip-path="url(#clipPath2)" fill="rgb(178,142,107)" width="208" height="1" stroke="none"/>
      <rect x="173.0431" y="-255.8945" clip-path="url(#clipPath2)" fill="rgb(178,142,107)" width="1" height="87" stroke="none"/>
    </g>
    <g text-rendering="geometricPrecision" stroke-miterlimit="1.45" shape-rendering="geometricPrecision" font-family="sans-serif" transform="matrix(1,0,0,1,102,271)" stroke-linecap="butt">
      <text x="48.757" xml:space="preserve" y="-235.6777" clip-path="url(#clipPath2)" stroke="none">tblastn</text>
      <text x="3.4874" xml:space="preserve" y="-221.7089" clip-path="url(#clipPath2)" stroke="none">query : filtered OR DB</text>
      <text x="17.0871" xml:space="preserve" y="-207.7402" clip-path="url(#clipPath2)" stroke="none">against : genome</text>
      <text x="67.6359" xml:space="preserve" y="-193.7714" clip-path="url(#clipPath2)" stroke="none"> </text>
      <text x="-14.5301" xml:space="preserve" y="-179.8027" clip-path="url(#clipPath2)" stroke="none">(Finds potential OR regions)</text>
    </g>
    <g fill="rgb(255,204,153)" text-rendering="geometricPrecision" shape-rendering="geometricPrecision" transform="matrix(1,0,0,1,102,271)" stroke="rgb(255,204,153)">
      <rect x="-58.9569" width="257" height="99" y="-137.8945" clip-path="url(#clipPath2)" stroke="none"/>
      <rect x="-58.9569" y="-137.8945" clip-path="url(#clipPath2)" fill="rgb(255,255,218)" width="1" height="99" stroke="none"/>
      <rect x="-57.9569" y="-137.8945" clip-path="url(#clipPath2)" fill="rgb(255,255,218)" width="255" height="1" stroke="none"/>
      <rect x="-57.9569" y="-39.8945" clip-path="url(#clipPath2)" fill="rgb(178,142,107)" width="256" height="1" stroke="none"/>
      <rect x="197.0431" y="-137.8945" clip-path="url(#clipPath2)" fill="rgb(178,142,107)" width="1" height="98" stroke="none"/>
    </g>
    <g text-rendering="geometricPrecision" stroke-miterlimit="1.45" shape-rendering="geometricPrecision" font-family="sans-serif" transform="matrix(1,0,0,1,102,271)" stroke-linecap="butt">
      <text x="51.3615" xml:space="preserve" y="-119.162" clip-path="url(#clipPath2)" stroke="none">blastx</text>
      <text x="3.4611" xml:space="preserve" y="-105.1933" clip-path="url(#clipPath2)" stroke="none">query : tblastn results</text>
      <text x="-30.6141" xml:space="preserve" y="-91.2245" clip-path="url(#clipPath2)" stroke="none">against : extended DB (with GRs)</text>
      <text x="67.6359" xml:space="preserve" y="-77.2558" clip-path="url(#clipPath2)" stroke="none"> </text>
      <text x="-48.4969" xml:space="preserve" y="-63.287" clip-path="url(#clipPath2)" stroke="none">(keeps best hits that match a OR gene </text>
      <text x="-22.2821" xml:space="preserve" y="-49.3183" clip-path="url(#clipPath2)" stroke="none">better than an outgroup gene)</text>
      <path fill="none" d="M635.4531 -119.6952 L635.4531 -86.9728" clip-path="url(#clipPath2)"/>
      <path d="M635.4531 -78.9728 L640.4531 -90.9728 L635.4531 -87.9728 L630.4531 -90.9728 Z" clip-path="url(#clipPath2)" stroke="none"/>
      <path fill="none" d="M635.4531 -21.9937 L635.4531 10.742" clip-path="url(#clipPath2)"/>
      <path d="M635.4531 18.742 L640.4531 6.742 L635.4531 9.742 L630.4531 6.742 Z" clip-path="url(#clipPath2)" stroke="none"/>
      <path fill="none" d="M635.4531 106.6945 L635.4531 139.3824" clip-path="url(#clipPath2)"/>
      <path d="M635.4531 147.3824 L640.4531 135.3824 L635.4531 138.3824 L630.4531 135.3824 Z" clip-path="url(#clipPath2)" stroke="none"/>
      <path fill="none" d="M635.4531 203.3869 L635.4531 236.0719" clip-path="url(#clipPath2)"/>
      <path d="M635.4531 244.0719 L640.4531 232.0719 L635.4531 235.0719 L630.4531 232.0719 Z" clip-path="url(#clipPath2)" stroke="none"/>
      <path fill="none" d="M635.4531 300.096 L635.4531 332.7534" clip-path="url(#clipPath2)"/>
      <path d="M635.4531 340.7534 L640.4531 328.7534 L635.4531 331.7534 L630.4531 328.7534 Z" clip-path="url(#clipPath2)" stroke="none"/>
      <path fill="none" d="M635.4531 413.7858 L635.4531 446.4901" clip-path="url(#clipPath2)"/>
      <path d="M635.4531 454.4901 L640.4531 442.4901 L635.4531 445.4901 L630.4531 442.4901 Z" clip-path="url(#clipPath2)" stroke="none"/>
      <path fill="none" d="M635.4531 537.7035 L635.4531 570.3701" clip-path="url(#clipPath2)"/>
      <path d="M635.4531 578.3701 L640.4531 566.3701 L635.4531 569.3701 L630.4531 566.3701 Z" clip-path="url(#clipPath2)" stroke="none"/>
      <path fill="none" d="M635.4531 651.4225 L635.4531 673.391" clip-path="url(#clipPath2)"/>
      <path d="M635.4531 681.391 L640.4531 669.391 L635.4531 672.391 L630.4531 669.391 Z" clip-path="url(#clipPath2)" stroke="none"/>
      <path fill="none" d="M69.5431 -167.9036 L69.5431 -145.8936" clip-path="url(#clipPath2)"/>
      <path d="M69.5431 -137.8936 L74.5431 -149.8936 L69.5431 -146.8936 L64.5431 -149.8936 Z" clip-path="url(#clipPath2)" stroke="none"/>
    </g>
    <g fill="rgb(245,245,245)" text-rendering="geometricPrecision" shape-rendering="geometricPrecision" transform="matrix(1,0,0,1,102,271)" stroke="rgb(245,245,245)">
      <rect x="-86.4569" y="-8.8945" clip-path="url(#clipPath2)" width="456.9496" rx="4" ry="4" height="667.2855" stroke="none"/>
      <rect x="-86.4569" y="-8.8945" clip-path="url(#clipPath2)" fill="rgb(235,235,235)" width="456.9496" height="38.9219" stroke="none"/>
    </g>
    <g font-size="15px" stroke-linecap="butt" transform="matrix(1,0,0,1,102,271)" text-rendering="geometricPrecision" font-family="sans-serif" shape-rendering="geometricPrecision" stroke-miterlimit="1.45">
      <text x="72.4551" xml:space="preserve" y="7.0289" clip-path="url(#clipPath2)" stroke="none">While loop - putative proteins &gt; 320 aa</text>
      <text x="6.2148" xml:space="preserve" y="24.4898" clip-path="url(#clipPath2)" stroke="none">(repeats until no new potential OR genes found)</text>
      <rect x="-86.4569" y="-8.8945" clip-path="url(#clipPath2)" fill="none" width="456.9496" stroke-dasharray="6,2" rx="4" ry="4" height="667.2855"/>
    </g>
    <g fill="rgb(204,255,204)" text-rendering="geometricPrecision" shape-rendering="geometricPrecision" transform="matrix(1,0,0,1,102,271)" stroke="rgb(204,255,204)">
      <path d="M-65.4569 59.965 L13.6243 45.0274 L125.4619 45.0274 L204.5431 59.965 L204.5431 81.0899 L125.4619 96.0274 L13.6243 96.0274 L-65.4569 81.0899 Z" fill-rule="evenodd" clip-path="url(#clipPath2)" stroke="none"/>
    </g>
    <g text-rendering="geometricPrecision" stroke-miterlimit="1.45" shape-rendering="geometricPrecision" transform="matrix(1,0,0,1,102,271)" stroke-linecap="butt">
      <path fill="none" d="M-65.4569 59.965 L13.6243 45.0274 L125.4619 45.0274 L204.5431 59.965 L204.5431 81.0899 L125.4619 96.0274 L13.6243 96.0274 L-65.4569 81.0899 Z" fill-rule="evenodd" clip-path="url(#clipPath2)"/>
      <text x="-14.1903" xml:space="preserve" y="67.6973" clip-path="url(#clipPath2)" font-family="sans-serif" stroke="none">Rscript : extend hits before </text>
      <text x="-33.242" xml:space="preserve" y="81.6661" clip-path="url(#clipPath2)" font-family="sans-serif" stroke="none">and after the potential OR regions</text>
    </g>
    <g fill="rgb(204,153,255)" text-rendering="geometricPrecision" shape-rendering="geometricPrecision" transform="matrix(1,0,0,1,102,271)" stroke="rgb(204,153,255)">
      <rect x="-71.4569" width="282" height="56" y="114.0274" clip-path="url(#clipPath2)" stroke="none"/>
      <rect x="-71.4569" y="114.0274" clip-path="url(#clipPath2)" fill="rgb(255,218,255)" width="1" height="56" stroke="none"/>
      <rect x="-70.4569" y="114.0274" clip-path="url(#clipPath2)" fill="rgb(255,218,255)" width="280" height="1" stroke="none"/>
      <rect x="-70.4569" y="169.0274" clip-path="url(#clipPath2)" fill="rgb(142,107,178)" width="281" height="1" stroke="none"/>
      <rect x="209.5431" y="114.0274" clip-path="url(#clipPath2)" fill="rgb(142,107,178)" width="1" height="55" stroke="none"/>
    </g>
    <g text-rendering="geometricPrecision" stroke-miterlimit="1.45" shape-rendering="geometricPrecision" font-family="sans-serif" transform="matrix(1,0,0,1,102,271)" stroke-linecap="butt">
      <text x="-54.2538" xml:space="preserve" y="131.1661" clip-path="url(#clipPath2)" stroke="none">Exonerate (exhaustive), protein2genome</text>
      <text x="-2.4657" xml:space="preserve" y="145.1348" clip-path="url(#clipPath2)" stroke="none">(sequence comparison, </text>
      <text x="-8.079" xml:space="preserve" y="159.1036" clip-path="url(#clipPath2)" stroke="none">takes exons into account)</text>
    </g>
    <g fill="rgb(204,255,204)" text-rendering="geometricPrecision" shape-rendering="geometricPrecision" transform="matrix(1,0,0,1,102,271)" stroke="rgb(204,255,204)">
      <path d="M-65.4569 213.802 L13.6243 188.0274 L125.4619 188.0274 L204.5431 213.802 L204.5431 250.2528 L125.4619 276.0274 L13.6243 276.0274 L-65.4569 250.2528 Z" fill-rule="evenodd" clip-path="url(#clipPath2)" stroke="none"/>
    </g>
    <g text-rendering="geometricPrecision" stroke-miterlimit="1.45" shape-rendering="geometricPrecision" transform="matrix(1,0,0,1,102,271)" stroke-linecap="butt">
      <path fill="none" d="M-65.4569 213.802 L13.6243 188.0274 L125.4619 188.0274 L204.5431 213.802 L204.5431 250.2528 L125.4619 276.0274 L13.6243 276.0274 L-65.4569 250.2528 Z" fill-rule="evenodd" clip-path="url(#clipPath2)"/>
      <text x="-28.5926" xml:space="preserve" y="215.2286" clip-path="url(#clipPath2)" font-family="sans-serif" stroke="none">Rscript : parse exonerate results</text>
      <text x="-18.3153" xml:space="preserve" y="229.1973" clip-path="url(#clipPath2)" font-family="sans-serif" stroke="none">finds best exonerate results, </text>
      <text x="-55.6249" xml:space="preserve" y="243.1661" clip-path="url(#clipPath2)" font-family="sans-serif" stroke="none">that are probably OR genes/pseudogenes</text>
      <text x="7.5451" xml:space="preserve" y="257.1348" clip-path="url(#clipPath2)" font-family="sans-serif" stroke="none">and non overlapping</text>
    </g>
    <g fill="rgb(204,153,255)" text-rendering="geometricPrecision" shape-rendering="geometricPrecision" transform="matrix(1,0,0,1,102,271)" stroke="rgb(204,153,255)">
      <rect x="-71.4569" width="282" height="56" y="294.0274" clip-path="url(#clipPath2)" stroke="none"/>
      <rect x="-71.4569" y="294.0274" clip-path="url(#clipPath2)" fill="rgb(255,218,255)" width="1" height="56" stroke="none"/>
      <rect x="-70.4569" y="294.0274" clip-path="url(#clipPath2)" fill="rgb(255,218,255)" width="280" height="1" stroke="none"/>
      <rect x="-70.4569" y="349.0274" clip-path="url(#clipPath2)" fill="rgb(142,107,178)" width="281" height="1" stroke="none"/>
      <rect x="209.5431" y="294.0274" clip-path="url(#clipPath2)" fill="rgb(142,107,178)" width="1" height="55" stroke="none"/>
    </g>
    <g text-rendering="geometricPrecision" stroke-miterlimit="1.45" shape-rendering="geometricPrecision" font-family="sans-serif" transform="matrix(1,0,0,1,102,271)" stroke-linecap="butt">
      <text x="-54.2538" xml:space="preserve" y="319.1973" clip-path="url(#clipPath2)" stroke="none">Exonerate (exhaustive), protein2genome</text>
      <text x="-54.0545" xml:space="preserve" y="333.1661" clip-path="url(#clipPath2)" stroke="none">on each target region -&gt; better precision</text>
    </g>
    <g fill="silver" text-rendering="geometricPrecision" shape-rendering="geometricPrecision" transform="matrix(1,0,0,1,102,271)" stroke="silver">
      <rect x="-71.4569" width="121" height="51" y="380.0274" clip-path="url(#clipPath2)" stroke="none"/>
      <rect x="-71.4569" y="380.0274" clip-path="url(#clipPath2)" fill="white" width="1" height="51" stroke="none"/>
      <rect x="-70.4569" y="380.0274" clip-path="url(#clipPath2)" fill="white" width="119" height="1" stroke="none"/>
      <rect x="-70.4569" y="430.0274" clip-path="url(#clipPath2)" fill="rgb(134,134,134)" width="120" height="1" stroke="none"/>
      <rect x="48.5431" y="380.0274" clip-path="url(#clipPath2)" fill="rgb(134,134,134)" width="1" height="50" stroke="none"/>
    </g>
    <g text-rendering="geometricPrecision" stroke-miterlimit="1.45" shape-rendering="geometricPrecision" font-family="sans-serif" transform="matrix(1,0,0,1,102,271)" stroke-linecap="butt">
      <text x="-56.2645" xml:space="preserve" y="402.6973" clip-path="url(#clipPath2)" stroke="none">Potential gene </text>
      <text x="-55.7958" xml:space="preserve" y="416.6661" clip-path="url(#clipPath2)" stroke="none">-&gt; Extract ORF</text>
    </g>
    <g fill="silver" text-rendering="geometricPrecision" shape-rendering="geometricPrecision" transform="matrix(1,0,0,1,102,271)" stroke="silver">
      <rect x="74.5431" width="209" height="78" y="380.0274" clip-path="url(#clipPath2)" stroke="none"/>
      <rect x="74.5431" y="380.0274" clip-path="url(#clipPath2)" fill="white" width="1" height="78" stroke="none"/>
      <rect x="75.5431" y="380.0274" clip-path="url(#clipPath2)" fill="white" width="207" height="1" stroke="none"/>
      <rect x="75.5431" y="457.0274" clip-path="url(#clipPath2)" fill="rgb(134,134,134)" width="208" height="1" stroke="none"/>
      <rect x="282.5431" y="380.0274" clip-path="url(#clipPath2)" fill="rgb(134,134,134)" width="1" height="77" stroke="none"/>
    </g>
    <g text-rendering="geometricPrecision" stroke-miterlimit="1.45" shape-rendering="geometricPrecision" font-family="sans-serif" transform="matrix(1,0,0,1,102,271)" stroke-linecap="butt">
      <text x="113.7345" xml:space="preserve" y="395.2442" clip-path="url(#clipPath2)" stroke="none">Potential pseudogene</text>
      <text x="117.0802" xml:space="preserve" y="409.213" clip-path="url(#clipPath2)" stroke="none">-&gt; Determine state: </text>
      <text x="137.5529" xml:space="preserve" y="423.1817" clip-path="url(#clipPath2)" stroke="none">Contig edge? </text>
      <text x="109.2228" xml:space="preserve" y="437.1505" clip-path="url(#clipPath2)" stroke="none">Premature stop codon?</text>
      <text x="143.6671" xml:space="preserve" y="451.1192" clip-path="url(#clipPath2)" stroke="none">Frameshift?</text>
    </g>
    <g fill="rgb(204,255,204)" text-rendering="geometricPrecision" shape-rendering="geometricPrecision" transform="matrix(1,0,0,1,102,271)" stroke="rgb(204,255,204)">
      <path d="M-65.4569 491.2371 L13.6243 471.0274 L125.4619 471.0274 L204.5431 491.2371 L204.5431 519.8178 L125.4619 540.0274 L13.6243 540.0274 L-65.4569 519.8178 Z" fill-rule="evenodd" clip-path="url(#clipPath2)" stroke="none"/>
    </g>
    <g text-rendering="geometricPrecision" stroke-miterlimit="1.45" shape-rendering="geometricPrecision" transform="matrix(1,0,0,1,102,271)" stroke-linecap="butt">
      <path fill="none" d="M-65.4569 491.2371 L13.6243 471.0274 L125.4619 471.0274 L204.5431 491.2371 L204.5431 519.8178 L125.4619 540.0274 L13.6243 540.0274 L-65.4569 519.8178 Z" fill-rule="evenodd" clip-path="url(#clipPath2)"/>
      <text x="-30.9803" xml:space="preserve" y="495.713" clip-path="url(#clipPath2)" font-family="sans-serif" stroke="none">Rscript : Re-process blast results </text>
      <text x="-29.5301" xml:space="preserve" y="509.6817" clip-path="url(#clipPath2)" font-family="sans-serif" stroke="none">to find new potential OR regions </text>
      <text x="-27.8133" xml:space="preserve" y="523.6505" clip-path="url(#clipPath2)" font-family="sans-serif" stroke="none">(excluding already found genes)</text>
    </g>
    <g fill="silver" text-rendering="geometricPrecision" shape-rendering="geometricPrecision" transform="matrix(1,0,0,1,102,271)" stroke="silver">
      <rect x="159.1507" width="181" height="57" y="586.391" clip-path="url(#clipPath2)" stroke="none"/>
      <rect x="159.1507" y="586.391" clip-path="url(#clipPath2)" fill="white" width="1" height="57" stroke="none"/>
      <rect x="160.1507" y="586.391" clip-path="url(#clipPath2)" fill="white" width="179" height="1" stroke="none"/>
      <rect x="160.1507" y="642.391" clip-path="url(#clipPath2)" fill="rgb(134,134,134)" width="180" height="1" stroke="none"/>
      <rect x="339.1507" y="586.391" clip-path="url(#clipPath2)" fill="rgb(134,134,134)" width="1" height="56" stroke="none"/>
    </g>
    <g text-rendering="geometricPrecision" stroke-miterlimit="1.45" shape-rendering="geometricPrecision" font-family="sans-serif" transform="matrix(1,0,0,1,102,271)" stroke-linecap="butt">
      <text x="174.6683" xml:space="preserve" y="605.0765" clip-path="url(#clipPath2)" stroke="none">add the newly predicted </text>
      <text x="174.9056" xml:space="preserve" y="619.0453" clip-path="url(#clipPath2)" stroke="none">OR genes to protein split</text>
      <text x="184.5502" xml:space="preserve" y="633.014" clip-path="url(#clipPath2)" stroke="none">database (Exonerate)</text>
    </g>
    <g fill="silver" text-rendering="geometricPrecision" shape-rendering="geometricPrecision" transform="matrix(1,0,0,1,102,271)" stroke="silver">
      <rect x="-44.602" y="793.375" clip-path="url(#clipPath2)" width="305" rx="4" ry="4" height="57" stroke="none"/>
    </g>
    <g text-rendering="geometricPrecision" stroke-miterlimit="1.45" shape-rendering="geometricPrecision" transform="matrix(1,0,0,1,102,271)" stroke-linecap="butt">
      <rect x="-44.602" y="793.375" clip-path="url(#clipPath2)" fill="none" width="305" rx="4" ry="4" height="57"/>
      <text x="-3.1392" xml:space="preserve" y="819.0449" clip-path="url(#clipPath2)" font-family="sans-serif" stroke="none">Search for OR genes with a smaller size</text>
      <text x="46.0854" xml:space="preserve" y="833.0137" clip-path="url(#clipPath2)" font-family="sans-serif" stroke="none">(similarly to while loop)</text>
      <path fill="none" d="M69.5431 -38.9254 L69.5431 37.008" clip-path="url(#clipPath2)"/>
      <path d="M69.5431 45.008 L74.5431 33.008 L69.5431 36.008 L64.5431 33.008 Z" clip-path="url(#clipPath2)" stroke="none"/>
      <path fill="none" d="M69.5431 96.0482 L69.5431 106.0537" clip-path="url(#clipPath2)"/>
      <path d="M69.5431 114.0537 L74.5431 102.0537 L69.5431 105.0537 L64.5431 102.0537 Z" clip-path="url(#clipPath2)" stroke="none"/>
      <path fill="none" d="M69.5431 170.0206 L69.5431 180.0353" clip-path="url(#clipPath2)"/>
      <path d="M69.5431 188.0353 L74.5431 176.0353 L69.5431 179.0353 L64.5431 176.0353 Z" clip-path="url(#clipPath2)" stroke="none"/>
      <path fill="none" d="M69.5431 276.0167 L69.5431 286.0345" clip-path="url(#clipPath2)"/>
      <path d="M69.5431 294.0345 L74.5431 282.0345 L69.5431 285.0345 L64.5431 282.0345 Z" clip-path="url(#clipPath2)" stroke="none"/>
      <path fill="none" d="M42.5591 350.017 L19.1847 374.2625" clip-path="url(#clipPath2)"/>
      <path d="M13.6322 380.0219 L25.5605 374.8531 L19.8787 373.5426 L18.3613 367.9126 Z" clip-path="url(#clipPath2)" stroke="none"/>
      <text x="-38.2659" y="367.1652" clip-path="url(#clipPath2)" fill="maroon" font-family="sans-serif" stroke="none" xml:space="preserve">has an ORF</text>
      <path fill="none" d="M101.1687 350.0428 L129.0413 374.7336" clip-path="url(#clipPath2)"/>
      <path d="M135.0296 380.0383 L129.3626 368.3385 L128.2928 374.0705 L122.7317 375.8239 Z" clip-path="url(#clipPath2)" stroke="none"/>
      <text x="131.9639" y="363.1056" clip-path="url(#clipPath2)" fill="maroon" font-family="sans-serif" stroke="none" xml:space="preserve">no ORF</text>
      <path fill="none" d="M9.5808 431.0401 L36.7413 464.7798" clip-path="url(#clipPath2)"/>
      <path d="M41.7579 471.0116 L38.1279 458.5287 L36.1143 464.0009 L30.3382 464.7993 Z" clip-path="url(#clipPath2)" stroke="none"/>
      <path fill="none" d="M129.6665 458.0327 L119.4748 466.0837" clip-path="url(#clipPath2)"/>
      <path d="M113.1972 471.0427 L125.713 467.5277 L120.2595 465.4638 L119.5142 459.6807 Z" clip-path="url(#clipPath2)" stroke="none"/>
      <path fill="none" d="M75.7655 540.0385 L101.3401 681.8826" clip-path="url(#clipPath2)"/>
      <path d="M102.7596 689.7557 L105.551 677.0589 L101.1626 680.8985 L95.7096 678.8333 Z" clip-path="url(#clipPath2)" stroke="none"/>
      <text x="-47.2136" y="612.0609" clip-path="url(#clipPath2)" fill="maroon" font-family="sans-serif" stroke="none" xml:space="preserve">when no new potential</text>
      <text x="-38.489" y="626.0297" clip-path="url(#clipPath2)" fill="maroon" font-family="sans-serif" stroke="none" xml:space="preserve">OR genes are found</text>
      <path fill="none" d="M126.1126 539.8771 L195.8525 582.224" clip-path="url(#clipPath2)"/>
      <path d="M202.6906 586.3762 L195.0285 575.8741 L194.9977 581.705 L189.8383 584.4218 Z" clip-path="url(#clipPath2)" stroke="none"/>
      <text x="119.8949" y="558.1661" clip-path="url(#clipPath2)" fill="maroon" font-family="sans-serif" stroke="none" xml:space="preserve">new potential</text>
      <text x="101.1273" y="572.1348" clip-path="url(#clipPath2)" fill="maroon" font-family="sans-serif" stroke="none" xml:space="preserve">OR genes are found</text>
      <path fill="none" d="M334.0118 586.3704 L334.0118 70.5274 L212.5216 70.5274" clip-path="url(#clipPath2)"/>
      <path d="M204.5216 70.5274 L216.5216 75.5274 L213.5216 70.5274 L216.5216 65.5274 Z" clip-path="url(#clipPath2)" stroke="none"/>
      <path fill="none" d="M107.8979 746.7654 L107.8979 785.3788" clip-path="url(#clipPath2)"/>
      <path d="M107.8979 793.3788 L112.8979 781.3788 L107.8979 784.3788 L102.8979 781.3788 Z" clip-path="url(#clipPath2)" stroke="none"/>
      <path fill="none" d="M260.4198 821.875 L399.2151 821.875 L440.1269 -148.1715 L474.9976 -148.1715" clip-path="url(#clipPath2)"/>
      <path d="M482.9976 -148.1715 L470.9976 -153.1715 L473.9976 -148.1715 L470.9976 -143.1715 Z" clip-path="url(#clipPath2)" stroke="none"/>
    </g>
  </g>
</svg>
